<?xml version="1.0" encoding="UTF-8"?>
<svg xmlns="http://www.w3.org/2000/svg" xmlns:xlink="http://www.w3.org/1999/xlink" width="372.3pt" height="372.3pt" viewBox="0 0 372.3 372.3" version="1.1">
<g id="surface1">
<path style=" stroke:none;fill-rule:evenodd;fill:rgb(100%,100%,100%);fill-opacity:1;" d="M 0.0117188 372.289063 L 372.386719 372.289063 L 372.386719 -0.0859375 L 0.0117188 -0.0859375 Z M 0.0117188 372.289063 "/>
<path style=" stroke:none;fill-rule:evenodd;fill:rgb(98.4375%,70.506287%,0%);fill-opacity:1;" d="M 326.777344 162.585938 L 326.78125 162.585938 C 324.996094 165.285156 324.347656 168.53125 323.804688 171.914063 C 323.136719 176.039063 322.433594 179.996094 320.976563 183.878906 C 319.222656 188.53125 316.28125 193.710938 311.160156 197.765625 C 305.839844 183.359375 298.089844 170.121094 288.421875 158.554688 C 294.523438 156.113281 300.511719 156.152344 305.4375 156.964844 C 309.523438 157.640625 313.304688 159.011719 317.210938 160.496094 C 320.414063 161.71875 323.550781 162.78125 326.777344 162.578125 Z M 326.777344 162.585938 "/>
<path style=" stroke:none;fill-rule:evenodd;fill:rgb(98.4375%,70.506287%,0%);fill-opacity:1;" d="M 267.363281 103.164063 L 267.359375 103.171875 L 267.363281 103.164063 C 267.167969 106.398438 268.230469 109.535156 269.453125 112.738281 C 270.9375 116.644531 272.304688 120.421875 272.984375 124.511719 C 273.796875 129.441406 273.832031 135.4375 271.386719 141.539063 C 259.796875 131.886719 246.546875 124.160156 232.125 118.855469 C 236.191406 113.691406 241.398438 110.734375 246.070313 108.972656 C 249.949219 107.515625 253.90625 106.8125 258.03125 106.144531 C 261.414063 105.601563 264.664063 104.953125 267.363281 103.164063 Z M 267.363281 103.164063 "/>
<path style=" stroke:none;fill-rule:evenodd;fill:rgb(98.4375%,70.506287%,0%);fill-opacity:1;" d="M 317.417969 221.09375 C 323.875 222.046875 329.015625 225.058594 332.855469 228.210938 C 336.058594 230.839844 338.644531 233.914063 341.285156 237.15625 C 343.445313 239.816406 345.632813 242.304688 348.527344 243.746094 L 319.367188 243.746094 C 319.359375 236.023438 318.6875 228.453125 317.417969 221.09375 Z M 317.417969 221.09375 "/>
<path style=" stroke:none;fill-rule:evenodd;fill:rgb(98.4375%,70.506287%,0%);fill-opacity:1;" d="M 105.03125 103.164063 L 105.035156 103.171875 L 105.035156 103.164063 C 107.730469 104.953125 110.980469 105.601563 114.367188 106.144531 C 118.488281 106.8125 122.449219 107.515625 126.328125 108.972656 C 131 110.730469 136.207031 113.695313 140.269531 118.855469 C 125.847656 124.15625 112.597656 131.886719 101.007813 141.539063 C 98.5625 135.4375 98.601563 129.441406 99.414063 124.511719 C 100.089844 120.421875 101.460938 116.644531 102.945313 112.738281 C 104.167969 109.535156 105.230469 106.398438 105.03125 103.164063 Z M 105.03125 103.164063 "/>
<path style=" stroke:none;fill-rule:evenodd;fill:rgb(98.4375%,70.506287%,0%);fill-opacity:1;" d="M 45.617188 162.585938 L 45.621094 162.585938 L 45.617188 162.585938 C 48.847656 162.78125 51.984375 161.71875 55.1875 160.496094 C 59.09375 159.011719 62.871094 157.644531 66.960938 156.964844 C 71.886719 156.152344 77.875 156.117188 83.976563 158.554688 C 74.304688 170.121094 66.558594 183.359375 61.234375 197.769531 C 56.113281 193.710938 53.171875 188.53125 51.421875 183.878906 C 49.964844 179.996094 49.261719 176.039063 48.59375 171.914063 C 48.050781 168.53125 47.402344 165.285156 45.617188 162.585938 Z M 45.617188 162.585938 "/>
<path style=" stroke:none;fill-rule:evenodd;fill:rgb(98.4375%,70.506287%,0%);fill-opacity:1;" d="M 23.871094 243.746094 C 26.765625 242.304688 28.949219 239.816406 31.113281 237.15625 C 33.753906 233.914063 36.339844 230.84375 39.542969 228.210938 C 43.382813 225.0625 48.519531 222.046875 54.976563 221.09375 C 53.707031 228.453125 53.035156 236.023438 53.027344 243.746094 Z M 23.871094 243.746094 "/>
<path style=" stroke:none;fill-rule:evenodd;fill:rgb(98.4375%,70.506287%,0%);fill-opacity:1;" d="M 186.195313 81.421875 L 186.199219 81.421875 C 187.644531 84.316406 190.132813 86.496094 192.792969 88.664063 C 196.03125 91.304688 199.105469 93.890625 201.738281 97.09375 C 204.90625 100.953125 207.9375 106.136719 208.875 112.652344 C 201.503906 111.386719 193.929688 110.722656 186.199219 110.722656 C 178.46875 110.722656 170.894531 111.386719 163.523438 112.652344 C 164.457031 106.136719 167.488281 100.953125 170.660156 97.09375 C 173.289063 93.890625 176.367188 91.304688 179.605469 88.664063 C 182.265625 86.496094 184.753906 84.316406 186.195313 81.421875 Z M 186.195313 81.421875 "/>
<path style=" stroke:none;fill-rule:evenodd;fill:rgb(83.59375%,4.704285%,16.088867%);fill-opacity:1;" d="M 159.117188 243.777344 L 169.136719 243.746094 C 170.453125 235.285156 167.878906 228.769531 159.316406 230.324219 C 152.101563 231.632813 144.355469 238.800781 139.671875 243.746094 L 152.882813 243.691406 C 154.355469 242.722656 157.234375 241.617188 158.417969 242.441406 C 158.859375 242.746094 159.09375 243.183594 159.117188 243.777344 Z M 159.117188 243.777344 "/>
<path style=" stroke:none;fill-rule:evenodd;fill:rgb(83.59375%,4.704285%,16.088867%);fill-opacity:1;" d="M 204.175781 243.746094 L 216.675781 243.746094 C 217.269531 228.988281 214.894531 213.742188 208.03125 200.554688 C 201.789063 188.554688 191.46875 180.398438 178.113281 178.425781 C 158.613281 175.550781 138.9375 183.804688 122.300781 195.613281 C 104.1875 208.472656 89.238281 225.9375 76.175781 243.746094 L 92.6875 243.726563 C 107.554688 222.65625 141.746094 190.664063 166.898438 190.453125 C 174.914063 190.390625 183.066406 192.273438 189.089844 197.648438 C 193.457031 201.539063 198.75 209.109375 198.492188 215.246094 C 198.335938 218.890625 195.105469 220.003906 192.007813 218.878906 C 189.601563 217.996094 187.902344 215.800781 186.21875 213.488281 C 180.746094 205.976563 172.207031 202.296875 162.84375 203.578125 C 151.675781 205.105469 137.832031 213.777344 128.902344 221.664063 C 121.203125 228.46875 114.132813 235.910156 107.464844 243.746094 L 125.21875 243.746094 C 131.726563 235.894531 138.597656 229.195313 147.429688 223.691406 C 150.226563 221.953125 153.667969 220.109375 157.285156 218.867188 C 166.414063 215.730469 175.496094 216.523438 179.527344 227.886719 C 181.113281 232.355469 181.347656 236.273438 180.882813 243.453125 L 180.882813 243.746094 L 192.957031 243.746094 L 192.988281 243.382813 C 192.996094 239.449219 192.910156 236.796875 193.265625 232.898438 C 193.570313 229.539063 194.613281 226.058594 197.734375 225.644531 C 204.363281 224.257813 204.046875 239.007813 204.175781 243.746094 Z M 204.175781 243.746094 "/>
<path style=" stroke:none;fill-rule:evenodd;fill:rgb(83.59375%,4.704285%,16.088867%);fill-opacity:1;" d="M 229.820313 243.746094 L 242.425781 243.746094 C 243.035156 230.054688 241.859375 213.828125 237.429688 199.660156 C 236.554688 196.863281 235.554688 194.152344 234.421875 191.5625 C 231.738281 185.4375 228.128906 179.894531 223.824219 174.773438 C 219.039063 169.085938 213.339844 163.96875 206.914063 159.9375 C 205.015625 158.746094 203.050781 157.652344 201.019531 156.660156 L 201.019531 156.65625 C 199.007813 155.671875 196.925781 154.789063 194.78125 154.03125 L 194.769531 154.027344 C 170.226563 145.3125 145.402344 151.511719 124.578125 162.835938 C 120.515625 165.046875 116.609375 167.449219 112.890625 169.972656 C 109.171875 172.492188 105.628906 175.140625 102.300781 177.84375 L 102.296875 177.84375 L 102.292969 177.847656 C 98.339844 181.054688 93.394531 185.441406 88.5 190.621094 C 87.535156 191.648438 86.582031 192.6875 85.65625 193.738281 C 83.179688 196.546875 79.363281 200.484375 80.496094 204.554688 C 81.394531 207.78125 85.558594 206.828125 87.007813 205.71875 C 89.238281 204.523438 91.683594 202.628906 93.773438 200.859375 C 96.609375 198.453125 99.285156 195.871094 102.09375 193.445313 C 113.441406 183.605469 125.273438 176.015625 136.925781 170.882813 C 139.464844 169.761719 142.007813 168.757813 144.542969 167.867188 C 147.066406 166.980469 149.578125 166.210938 152.070313 165.5625 L 152.082031 165.5625 C 173.765625 159.929688 197.324219 163.578125 212.414063 181.261719 C 226.945313 198.289063 229.597656 221.09375 229.820313 243.746094 Z M 73.433594 224.496094 C 74.785156 223.230469 76.167969 221.578125 77.605469 219.753906 C 79.617188 217.203125 79.816406 214.734375 79.023438 212.949219 C 78.726563 212.28125 78.289063 211.710938 77.757813 211.265625 C 77.234375 210.824219 76.609375 210.511719 75.9375 210.359375 C 74.300781 209.984375 72.339844 210.570313 70.671875 212.597656 C 68.789063 214.886719 66.191406 218.804688 65.660156 222.269531 C 65.558594 222.914063 65.535156 223.546875 65.601563 224.140625 C 65.664063 224.71875 65.820313 225.265625 66.078125 225.765625 L 66.082031 225.769531 C 66.503906 226.578125 67.21875 227.011719 68.175781 227.046875 C 68.375 227.054688 68.589844 227.046875 68.816406 227.019531 C 69.039063 226.996094 69.28125 226.953125 69.539063 226.890625 L 69.539063 226.894531 L 69.550781 226.890625 C 70.835938 226.578125 72.121094 225.71875 73.433594 224.496094 Z M 73.433594 224.496094 "/>
<path style=" stroke:none;fill-rule:evenodd;fill:rgb(83.59375%,4.704285%,16.088867%);fill-opacity:1;" d="M 261.347656 243.753906 L 261.484375 243.753906 C 262.800781 243.824219 265.089844 243.214844 266.410156 240.988281 C 266.675781 240.539063 266.902344 240.035156 267.070313 239.453125 C 267.246094 238.871094 267.367188 238.203125 267.417969 237.453125 L 267.429688 237.300781 C 268.429688 202.289063 257.707031 173.316406 239.503906 153.621094 C 235.96875 149.804688 232.148438 146.324219 228.070313 143.21875 C 223.992188 140.117188 219.671875 137.390625 215.128906 135.066406 L 215.058594 135.03125 L 215.054688 135.027344 C 199.757813 127.203125 182.402344 124.203125 165.371094 125.648438 C 162.050781 125.929688 158.746094 126.378906 155.484375 126.992188 C 152.214844 127.605469 148.96875 128.386719 145.773438 129.328125 L 145.726563 129.34375 C 128.210938 134.527344 111.914063 144.808594 98.628906 158.304688 C 96.042969 160.933594 93.570313 163.683594 91.230469 166.53125 C 90.070313 167.949219 88.9375 169.390625 87.839844 170.859375 C 97.15625 162.820313 107.148438 155.769531 117.601563 150.171875 C 119.957031 148.910156 122.324219 147.726563 124.699219 146.621094 C 127.078125 145.523438 129.484375 144.496094 131.917969 143.554688 L 131.933594 143.546875 C 141.167969 139.953125 150.269531 137.664063 159.378906 136.644531 C 168.484375 135.621094 177.59375 135.863281 186.847656 137.335938 C 193.433594 138.382813 199.859375 140.109375 205.652344 142.519531 C 206.773438 142.988281 207.878906 143.484375 208.960938 144.011719 C 210.03125 144.527344 211.082031 145.078125 212.113281 145.660156 L 212.128906 145.664063 L 212.128906 145.671875 C 232.515625 156.828125 246.679688 179.738281 252.917969 205.601563 C 254.132813 210.644531 255.046875 215.796875 255.648438 220.988281 C 256.25 226.175781 256.539063 231.421875 256.503906 236.65625 L 256.5 236.953125 C 256.601563 239.761719 257.5625 242.101563 259.207031 243.15625 C 259.515625 243.355469 259.847656 243.507813 260.199219 243.605469 L 260.203125 243.605469 C 260.5625 243.710938 260.945313 243.761719 261.347656 243.753906 Z M 261.347656 243.753906 "/>
<path style=" stroke:none;fill-rule:evenodd;fill:rgb(98.4375%,70.506287%,0%);fill-opacity:1;" d="M 224.898438 127.085938 C 273.914063 143.277344 309.335938 189.367188 309.539063 243.746094 L 285.289063 243.746094 C 286.894531 196.246094 266.160156 153.367188 224.898438 127.085938 Z M 224.898438 127.085938 "/>
<path style=" stroke:none;fill-rule:evenodd;fill:rgb(83.59375%,4.704285%,16.088867%);fill-opacity:1;" d="M 82.585938 281.894531 L 72.777344 281.894531 L 70.347656 290.441406 L 62.527344 290.441406 L 72.871094 257.703125 L 82.78125 257.703125 L 93.417969 290.441406 L 85.257813 290.441406 Z M 73.894531 276.359375 L 81.421875 276.359375 C 79.445313 269.964844 78.167969 265.574219 77.585938 263.195313 L 77.488281 263.195313 L 75.933594 269.414063 Z M 118.621094 281.894531 L 108.808594 281.894531 L 106.382813 290.441406 L 98.5625 290.441406 L 108.90625 257.703125 L 118.8125 257.703125 L 129.449219 290.441406 L 121.292969 290.441406 Z M 109.925781 276.359375 L 117.453125 276.359375 C 115.480469 269.964844 114.199219 265.574219 113.617188 263.195313 L 113.519531 263.195313 L 111.964844 269.414063 Z M 136.925781 290.292969 L 136.925781 258.144531 C 140.164063 257.660156 143.628906 257.414063 147.320313 257.414063 C 154.296875 257.414063 159.308594 258.871094 162.34375 261.796875 C 165.378906 264.71875 166.890625 268.539063 166.890625 273.246094 C 166.890625 278.820313 165.167969 283.132813 161.710938 286.191406 C 158.253906 289.253906 152.921875 290.78125 145.71875 290.78125 C 142.382813 290.78125 139.453125 290.621094 136.925781 290.292969 Z M 144.453125 263.488281 L 144.453125 284.808594 C 144.875 284.90625 145.78125 284.953125 147.175781 284.953125 C 150.914063 284.953125 153.8125 283.964844 155.859375 281.996094 C 157.90625 280.03125 158.925781 277.214844 158.925781 273.539063 C 158.925781 270.171875 157.996094 267.609375 156.125 265.84375 C 154.257813 264.078125 151.5625 263.195313 148.046875 263.195313 C 146.574219 263.195313 145.378906 263.289063 144.453125 263.488281 Z M 174.953125 257.703125 L 182.480469 257.703125 L 182.480469 270.285156 L 195.347656 270.285156 L 195.347656 257.703125 L 202.878906 257.703125 L 202.878906 290.441406 L 195.347656 290.441406 L 195.347656 276.789063 L 182.480469 276.789063 L 182.480469 290.441406 L 174.953125 290.441406 Z M 230.167969 281.894531 L 220.359375 281.894531 L 217.929688 290.441406 L 210.109375 290.441406 L 220.457031 257.703125 L 230.363281 257.703125 L 241 290.441406 L 232.839844 290.441406 Z M 221.476563 276.359375 L 229.003906 276.359375 C 227.027344 269.964844 225.75 265.574219 225.167969 263.195313 L 225.070313 263.195313 L 223.515625 269.414063 Z M 266.203125 281.894531 L 256.390625 281.894531 L 253.964844 290.441406 L 246.144531 290.441406 L 256.488281 257.703125 L 266.394531 257.703125 L 277.03125 290.441406 L 268.875 290.441406 Z M 257.507813 276.359375 L 265.035156 276.359375 C 263.0625 269.964844 261.78125 265.574219 261.199219 263.195313 L 261.101563 263.195313 L 259.546875 269.414063 Z M 284.507813 290.441406 L 284.507813 258.144531 C 287.261719 257.660156 290.644531 257.414063 294.660156 257.414063 C 299.613281 257.414063 303.175781 258.234375 305.34375 259.871094 C 307.511719 261.503906 308.597656 263.84375 308.597656 266.886719 C 308.597656 268.699219 308.054688 270.335938 306.960938 271.800781 C 305.871094 273.265625 304.453125 274.296875 302.722656 274.902344 L 302.722656 275.09375 C 304.761719 275.855469 306.234375 277.863281 307.140625 281.117188 C 308.808594 286.976563 309.714844 290.085938 309.859375 290.441406 L 302.1875 290.441406 C 301.539063 289.226563 300.761719 286.6875 299.855469 282.816406 C 299.402344 280.871094 298.789063 279.515625 298.011719 278.738281 C 297.234375 277.960938 295.988281 277.570313 294.269531 277.570313 L 291.941406 277.570313 L 291.941406 290.441406 Z M 291.941406 263.195313 L 291.941406 272.179688 L 295.046875 272.179688 C 296.925781 272.179688 298.40625 271.753906 299.492188 270.902344 C 300.578125 270.050781 301.117188 268.910156 301.117188 267.46875 C 301.117188 266.027344 300.632813 264.910156 299.652344 264.128906 C 298.675781 263.34375 297.28125 262.953125 295.484375 262.953125 C 293.71875 262.953125 292.539063 263.035156 291.941406 263.195313 Z M 291.941406 263.195313 "/>
</g>
</svg>
