<?xml version="1.0" encoding="utf-8"?>
<!-- Generator: Adobe Illustrator 25.2.0, SVG Export Plug-In . SVG Version: 6.00 Build 0)  -->
<svg version="1.1" id="Layer_1" xmlns="http://www.w3.org/2000/svg" xmlns:xlink="http://www.w3.org/1999/xlink" x="0px" y="0px"
	 viewBox="0 0 140 50" style="enable-background:new 0 0 140 50;" xml:space="preserve">
<style type="text/css">
	.st0{fill-rule:evenodd;clip-rule:evenodd;fill:#FC6D0B;}
	.st1{fill-rule:evenodd;clip-rule:evenodd;fill:#FFFFFF;}
	.st2{fill-rule:evenodd;clip-rule:evenodd;fill:#3395FF;}
</style>
<path class="st0" d="M121.8,15.5l4.3,5.5l-2.7,3.2l-6.8-8.7H121.8z"/>
<path class="st1" d="M31.5,21.5c0.4-1.4,0.2-2.6-0.5-3.3c-0.7-0.8-2-1.2-3.8-1.2h-6.9l-4.2,15.3h3.4l1.7-6.2h2.2
	c0.5,0,0.9,0.1,1.2,0.2s0.5,0.4,0.5,0.8l0.6,5.1h3.6l-0.6-4.8c-0.1-1.1-0.6-1.7-1.5-1.9c1.1-0.3,2-0.8,2.8-1.6
	C30.7,23.4,31.2,22.5,31.5,21.5z M28.3,21.6c-0.2,0.7-0.6,1.2-1.1,1.5c-0.5,0.3-1.3,0.5-2.3,0.5h-3.1l1.1-4H26c1,0,1.6,0.2,2,0.5
	C28.4,20.4,28.4,20.9,28.3,21.6z"/>
<path class="st1" d="M41.1,21.4L40.7,23c-0.2-0.6-0.5-1-1.1-1.3c-0.5-0.3-1.2-0.5-1.9-0.5c-0.9,0-1.9,0.2-2.7,0.7
	c-0.9,0.5-1.6,1.2-2.3,2c-0.7,0.9-1.1,1.9-1.4,3c-0.3,1.1-0.4,2.1-0.2,3c0.2,0.9,0.6,1.5,1.2,2c0.6,0.5,1.4,0.7,2.4,0.7
	c0.8,0,1.5-0.2,2.2-0.5c0.7-0.3,1.3-0.8,1.8-1.3l-0.4,1.6h3.3l3-10.9H41.1z M39.6,26.8c-0.3,1-0.7,1.8-1.3,2.4
	c-0.6,0.5-1.3,0.8-2.1,0.8c-0.8,0-1.4-0.3-1.7-0.8c-0.3-0.5-0.3-1.3,0-2.3c0.3-1,0.7-1.8,1.3-2.4c0.6-0.6,1.3-0.9,2.1-0.9
	c0.8,0,1.4,0.3,1.7,0.8C39.9,25,39.9,25.8,39.6,26.8z"/>
<path class="st1" d="M56.1,21.4h-9.5l-0.7,2.4h5.5L44.2,30l-0.6,2.3h9.8l0.7-2.4h-5.9l7.4-6.3L56.1,21.4z"/>
<path class="st1" d="M66.3,21.8c-0.7-0.5-1.7-0.7-2.9-0.7c-1.2,0-2.3,0.2-3.3,0.7c-1,0.5-1.9,1.1-2.6,2c-0.7,0.9-1.2,1.9-1.5,3
	c-0.3,1.1-0.3,2.1-0.1,3c0.2,0.9,0.7,1.5,1.5,2c0.8,0.5,1.7,0.7,2.9,0.7c1.2,0,2.2-0.2,3.2-0.7c1-0.5,1.8-1.1,2.6-2
	c0.7-0.9,1.2-1.9,1.5-3c0.3-1.1,0.3-2.2,0.1-3C67.5,23,67,22.3,66.3,21.8z M64.4,26.8c-0.3,1.1-0.7,1.9-1.3,2.4
	C62.5,29.8,61.8,30,61,30c-1.7,0-2.3-1.1-1.7-3.2c0.3-1.1,0.7-1.9,1.3-2.4c0.6-0.5,1.3-0.8,2.1-0.8c0.8,0,1.4,0.3,1.6,0.8
	C64.7,25,64.7,25.8,64.4,26.8z"/>
<path class="st1" d="M101.8,21.4l-0.4,1.5c-0.2-0.6-0.5-1-1.1-1.3c-0.5-0.3-1.2-0.5-1.9-0.5c-0.9,0-1.9,0.2-2.7,0.7
	c-0.9,0.5-1.6,1.2-2.3,2c-0.7,0.9-1.1,1.9-1.4,3c-0.3,1.1-0.4,2.1-0.2,3c0.2,0.9,0.6,1.5,1.2,2c0.6,0.5,1.4,0.7,2.4,0.7
	c0.8,0,1.5-0.2,2.2-0.5c0.7-0.3,1.3-0.8,1.8-1.3l-0.4,1.6h3.3l3-10.9H101.8z M100.3,26.8c-0.3,1-0.7,1.8-1.3,2.4
	c-0.6,0.5-1.3,0.8-2.1,0.8c-0.8,0-1.4-0.3-1.7-0.8c-0.3-0.5-0.3-1.3,0-2.3c0.3-1,0.7-1.8,1.3-2.4c0.6-0.6,1.3-0.9,2.1-0.9
	c0.8,0,1.4,0.3,1.7,0.8C100.6,25,100.6,25.8,100.3,26.8z"/>
<path class="st1" d="M77.9,24.3l0.8-3c-0.3-0.1-0.7-0.2-1.1-0.2c-0.7,0-1.5,0.2-2.1,0.5c-0.6,0.3-1.1,0.8-1.5,1.3l0.4-1.6l-0.9,0
	h-2.3l-3,10.9h3.3l1.6-5.7c0.2-0.8,0.6-1.5,1.2-1.9c0.6-0.5,1.3-0.7,2.2-0.7C76.9,24,77.4,24.1,77.9,24.3z"/>
<path class="st1" d="M89.4,21.9c-0.6-0.5-1.4-0.7-2.3-0.7c-0.8,0-1.6,0.2-2.4,0.6c-0.7,0.4-1.4,0.9-1.8,1.5l0-0.1l0.6-1.7h-0.6v0
	h-2.6l-0.8,3c0,0,0,0.1,0,0.1L76,37h3.3l1.7-6.3c0.2,0.6,0.5,1,1,1.3c0.5,0.3,1.2,0.5,1.9,0.5c1,0,1.9-0.2,2.7-0.7
	c0.9-0.5,1.6-1.1,2.3-2c0.6-0.9,1.1-1.8,1.4-3c0.3-1.1,0.4-2.1,0.2-3C90.4,23,90,22.3,89.4,21.9z M87.1,26.9c-0.3,1-0.7,1.8-1.3,2.3
	c-0.6,0.5-1.3,0.8-2.1,0.8c-0.8,0-1.4-0.3-1.7-0.8c-0.3-0.5-0.3-1.3,0-2.4c0.3-1,0.7-1.8,1.3-2.4c0.6-0.6,1.3-0.8,2.1-0.8
	c0.8,0,1.3,0.3,1.6,0.9C87.3,25.1,87.3,25.9,87.1,26.9z"/>
<path class="st1" d="M118.7,21.4L118.7,21.4l-2,0c-0.1,0-0.1,0-0.2,0h-1l-0.5,0.7c0,0.1-0.1,0.1-0.1,0.2l-0.1,0.1l-4.2,5.8l-0.9-6.8
	h-3.4l1.7,10.3l-3.9,5.3h0.1h2h1.4l0.9-1.3c0,0,0.1-0.1,0.1-0.1l1.1-1.5l0,0l4.9-6.8L118.7,21.4L118.7,21.4L118.7,21.4z"/>
<path class="st2" d="M7.6,18.8l-1,3.6l5.6-3.6L8.6,32.3l3.8,0l5.5-20L7.6,18.8z"/>
<path class="st1" d="M1.6,26.6L0,32.3h7.7c0,0,3.1-11.6,3.1-11.6C10.8,20.7,1.6,26.6,1.6,26.6z"/>
<path class="st1" d="M134.5,10l-18,23h4.8L139,10H134.5z"/>
<path class="st1" d="M124.8,26.3l9.4,12.2h5.6l-13.3-17L124.8,26.3z"/>
</svg>
